<?xml version="1.0" encoding="utf-8"?>
<!-- Generator: Adobe Illustrator 19.1.0, SVG Export Plug-In . SVG Version: 6.00 Build 0)  -->
<svg version="1.1" id="Layer_1" xmlns="http://www.w3.org/2000/svg" xmlns:xlink="http://www.w3.org/1999/xlink" x="0px" y="0px"
	 viewBox="-161 230.6 176.4 240.4" style="enable-background:new -161 230.6 176.4 240.4;" xml:space="preserve">
<style type="text/css">
	.st0{opacity:0.4;}
	.st1{fill:#0A9667;}
	.st2{fill:#507E90;}
	.st3{fill:#EDBB26;}
	.st4{opacity:0.9;fill:#FFFFFF;}
	.st5{fill:#0FA57C;stroke:#0FA57C;stroke-width:2;stroke-miterlimit:10;}
</style>
<g class="st0">
	<path class="st1" d="M2.8,387c0.2-29.3-16-64.3-50.5-56.8c-24.7,5.4-39.4,39.9-35.7,56.3c1.5,6.8,4,6.9,13.7-0.7
		c1.4-1.1,12-9.2,10.1-10.3c-1.6-0.9-5.6-1.6-6.4-3.3c-2.8-5.5,6.8-16.2,15.5-18c16.2-3.3,33.2,9.9,26.2,39.4
		c-4.7,19.8-20.6,34-42,40.1c-22.2,6.3-45,2.6-54.7-13c-13.7-22.1-2.3-60.6,30.2-91.8c22.5-21.5,55.7-47.1,57.5-72.8
		c1.3-18.9-5.3-13.8-7-12c-10.5,11.3-62.6,62.8-67.7,67.6c-42.4,40.3-51.9,88.2-38.1,117.4c11.8,24.9,43.8,41.3,86.5,32.5
		C-28.7,455.2,2.5,427.9,2.8,387z"/>
</g>
<g class="st0">
	<path class="st2" d="M-36.3,278.4c-27.3,36.4-57.9,50.3-75.2,82.3c-15.3,28.3-15.2,51,1.2,64.8c20.7,17.4,65.8,4.5,79.6-21.5
		c0.5-0.9-4.6,2.7-5.6,3.3c-12,8-40.7,14.5-58.3,6c-6.5-3.2-24.5-19.4-10.8-50.5c14.9-33.7,55.7-55.6,69.6-84.3
		C-35.4,277.9-35.5,277.3-36.3,278.4z"/>
</g>
<g class="st0">
	<path class="st3" d="M-30,273.8c-11,28.7-27,34.5-49.3,59.3s-30.7,48-21.7,67c10.1,21.2,48.6,10.8,50,9.7c2.3-1.9-31.7,3.9-36.7-20
		c-4.8-23.2,8.2-37.8,16.3-48.2c5.6-7.2,13.1-14.7,21.5-24.7c19.3-23.1,21.2-29.8,21.9-43.3C-27.5,263.3-29.3,272-30,273.8z"/>
</g>
<path class="st4" d="M-25.1,409.5h-95.3c-10.9,0-19.9-9-19.9-19.9v-8.6c0-10.9,9-19.9,19.9-19.9h95.3c10.9,0,19.9,9,19.9,19.9v8.6
	C-5.2,400.6-14.2,409.5-25.1,409.5z"/>
<g>
	<path class="st5" d="M-102.3,398.1v-23.4h-8.6v-1.6H-92v1.6h-8.7v23.4H-102.3z"/>
	<path class="st5" d="M-81.7,394.9c-2-2.3-3-5.4-3-9.3c0-4,1-7.2,3-9.6c2-2.4,4.7-3.6,8.1-3.6s6.1,1.2,8.1,3.6c2,2.4,3,5.6,3,9.6
		c0,3.9-1,7-3,9.3c-2,2.3-4.7,3.5-8.1,3.5S-79.6,397.2-81.7,394.9z M-66.7,393.8c1.7-2,2.6-4.7,2.6-8.2c0-3.5-0.9-6.3-2.6-8.4
		c-1.7-2.1-4-3.2-6.9-3.2s-5.2,1.1-6.9,3.2c-1.7,2.1-2.6,4.9-2.6,8.4c0,3.4,0.9,6.1,2.6,8.2c1.7,2.1,4,3.1,6.9,3.1
		S-68.4,395.8-66.7,393.8z"/>
	<path class="st5" d="M-52.6,398.1v-25h11.3c1.6,0,3,0.7,4.1,2c1.2,1.3,1.7,2.9,1.7,4.8c0,1.9-0.6,3.6-1.7,5
		c-1.1,1.4-2.5,2.1-4.1,2.1h-9.6v11.2H-52.6z M-41.6,385.3c1.2,0,2.3-0.5,3.2-1.5c0.9-1,1.3-2.2,1.3-3.6c0-1.5-0.4-2.8-1.3-3.8
		c-0.9-1-1.9-1.6-3.2-1.6h-9.3v10.6H-41.6z"/>
</g>
</svg>
