<?xml version="1.0" encoding="utf-8"?>
<!-- Generator: Adobe Illustrator 19.1.0, SVG Export Plug-In . SVG Version: 6.00 Build 0)  -->
<svg version="1.1" id="Layer_1" xmlns="http://www.w3.org/2000/svg" xmlns:xlink="http://www.w3.org/1999/xlink" x="0px" y="0px"
	 viewBox="-134 204.5 230.5 292.5" style="enable-background:new -134 204.5 230.5 292.5;" xml:space="preserve">
<style type="text/css">
	.st0{fill:#0A9667;}
	.st1{fill:#507E90;}
	.st2{fill:#EDBB26;}
</style>
<g>
	<path class="st0" d="M58.9,358.4c0.2-29.3-16-64.3-50.5-56.8c-24.7,5.4-39.4,39.9-35.7,56.3c1.5,6.8,4,6.9,13.7-0.7
		c1.4-1.1,12-9.2,10.1-10.3c-1.6-0.9-5.6-1.6-6.4-3.3c-2.8-5.5,6.8-16.2,15.5-18c16.2-3.3,33.2,9.9,26.2,39.4
		c-4.7,19.8-20.6,34-42,40.1c-22.2,6.3-45,2.6-54.7-13c-13.7-22.1-2.3-60.6,30.2-91.8c22.5-21.5,55.7-47.1,57.5-72.8
		c1.3-18.9-5.3-13.8-7-12C5.3,226.6-46.8,278.1-51.9,283c-42.3,40.5-51.9,88.3-38.1,117.5c11.8,24.9,43.8,41.3,86.5,32.5
		C27.4,426.7,58.6,399.4,58.9,358.4z"/>
</g>
<g>
	<path class="st1" d="M19.8,249.8c-27.3,36.4-57.9,50.3-75.2,82.3c-15.3,28.3-15.2,51,1.2,64.8c20.7,17.4,65.8,4.5,79.6-21.5
		c0.5-0.9-4.6,2.7-5.6,3.3c-12,8-40.7,14.5-58.3,6c-6.5-3.2-24.5-19.4-10.8-50.5c15.1-33.7,55.9-55.7,69.8-84.4
		C20.8,249.3,20.6,248.7,19.8,249.8z"/>
</g>
<g>
	<path class="st2" d="M26.1,245.2c-11,28.7-27,34.5-49.3,59.3s-30.7,48-21.7,67c10.1,21.2,48.6,10.8,50,9.7
		c2.3-1.9-31.7,3.9-36.7-20c-4.8-23.2,8.2-37.8,16.3-48.2c5.6-7.2,13.1-14.7,21.5-24.7C25.4,265.2,27.3,258.4,28,245
		C28.6,234.7,26.8,243.5,26.1,245.2z"/>
</g>
<g>
</g>
<path class="st0" d="M-61.8,451.2l6.8,19.1l6.7-19.1h7.1v26.3h-5.4v-7.2l0.5-12.4l-7.1,19.6h-3.7L-64,458l0.5,12.4v7.2h-5.4v-26.3
	H-61.8z"/>
<path class="st0" d="M-27.8,477.9c-2.9,0-5.2-0.9-7-2.6c-1.8-1.8-2.7-4.1-2.7-7v-0.5c0-2,0.4-3.7,1.1-5.3s1.8-2.7,3.2-3.6
	c1.4-0.8,3-1.3,4.8-1.3c2.7,0,4.8,0.8,6.3,2.5c1.5,1.7,2.3,4.1,2.3,7.2v2.1h-12.4c0.2,1.3,0.7,2.3,1.5,3.1c0.8,0.8,1.9,1.2,3.2,1.2
	c2,0,3.6-0.7,4.7-2.2l2.6,2.9c-0.8,1.1-1.8,2-3.2,2.6S-26.2,477.9-27.8,477.9z M-28.4,461.8c-1,0-1.9,0.4-2.5,1.1
	c-0.6,0.7-1.1,1.7-1.2,3h7.3v-0.4c0-1.2-0.3-2.1-0.9-2.7C-26.4,462.2-27.3,461.8-28.4,461.8z"/>
<path class="st0" d="M-12,458l0.2,2.3c1.4-1.7,3.3-2.6,5.6-2.6c2.1,0,3.6,0.6,4.6,1.8c1,1.2,1.5,3,1.6,5.5v12.6h-5.2V465
	c0-1.1-0.2-1.9-0.7-2.4c-0.5-0.5-1.3-0.8-2.4-0.8c-1.5,0-2.6,0.6-3.3,1.9v13.8h-5.2V458H-12z"/>
<path class="st0" d="M15.6,475.6c-1.3,1.6-3.1,2.3-5.3,2.3c-2.1,0-3.7-0.6-4.8-1.8c-1.1-1.2-1.7-3-1.7-5.3V458H9v12.6
	c0,2,0.9,3.1,2.8,3.1c1.8,0,3-0.6,3.6-1.8V458h5.2v19.5h-4.9L15.6,475.6z"/>
</svg>
