<?xml version="1.0" encoding="utf-8"?>
<!-- Generator: Adobe Illustrator 19.1.0, SVG Export Plug-In . SVG Version: 6.00 Build 0)  -->
<svg version="1.1" id="Layer_1" xmlns="http://www.w3.org/2000/svg" xmlns:xlink="http://www.w3.org/1999/xlink" x="0px" y="0px"
	 viewBox="0 0 176.4 240.4" enable-background="new 0 0 176.4 240.4" xml:space="preserve">
<g>
	<path fill="#0A9667" d="M163.8,156.4c0.2-29.3-16-64.3-50.5-56.8c-24.7,5.4-39.4,39.9-35.7,56.3c1.5,6.8,4,6.9,13.7-0.7
		c1.4-1.1,12-9.2,10.1-10.3c-1.6-0.9-5.6-1.6-6.4-3.3c-2.8-5.5,6.8-16.2,15.5-18c16.2-3.3,33.2,9.9,26.2,39.4
		c-4.7,19.8-20.6,34-42,40.1c-22.2,6.3-45,2.6-54.7-13c-13.7-22.1-2.3-60.6,30.2-91.8c22.5-21.5,55.7-47.1,57.5-72.8
		c1.3-18.9-5.3-13.8-7-12C110.2,24.8,58.1,76.3,53,81.1c-42.4,40.3-51.9,88.2-38.1,117.4c11.8,24.9,43.8,41.3,86.5,32.5
		C132.3,224.6,163.5,197.3,163.8,156.4z"/>
</g>
<g>
	<path fill="#507E90" d="M124.7,47.8c-27.3,36.4-57.9,50.3-75.2,82.3c-15.3,28.3-15.2,51,1.2,64.8c20.7,17.4,65.8,4.5,79.6-21.5
		c0.5-0.9-4.6,2.7-5.6,3.3c-12,8-40.7,14.5-58.3,6c-6.5-3.2-24.5-19.4-10.8-50.5c14.9-33.7,55.7-55.6,69.6-84.3
		C125.6,47.3,125.5,46.7,124.7,47.8z"/>
</g>
<g>
	<path fill="#EDBB26" d="M131,43.2c-11,28.7-27,34.5-49.3,59.3c-22.3,24.8-30.7,48-21.7,67c10.1,21.2,48.6,10.8,50,9.7
		c2.3-1.9-31.7,3.9-36.7-20c-4.8-23.2,8.2-37.8,16.3-48.2c5.6-7.2,13.1-14.7,21.5-24.7C130.4,63.2,132.3,56.5,133,43
		C133.5,32.7,131.7,41.4,131,43.2z"/>
</g>
</svg>
