<?xml version="1.0" encoding="utf-8"?>
<!-- Generator: Adobe Illustrator 19.1.0, SVG Export Plug-In . SVG Version: 6.00 Build 0)  -->
<svg version="1.1" id="Layer_1" xmlns="http://www.w3.org/2000/svg" xmlns:xlink="http://www.w3.org/1999/xlink" x="0px" y="0px"
	 viewBox="0 0 230.5 292.5" enable-background="new 0 0 230.5 292.5" xml:space="preserve">
<g>
	<path fill="#0A9667" d="M192.9,153.9c0.2-29.3-16-64.3-50.5-56.8c-24.7,5.4-39.4,39.9-35.7,56.3c1.5,6.8,4,6.9,13.7-0.7
		c1.4-1.1,12-9.2,10.1-10.3c-1.6-0.9-5.6-1.6-6.4-3.3c-2.8-5.5,6.8-16.2,15.5-18c16.2-3.3,33.2,9.9,26.2,39.4
		c-4.7,19.8-20.6,34-42,40.1c-22.2,6.3-45,2.6-54.7-13c-13.7-22.1-2.3-60.6,30.2-91.8c22.5-21.5,55.7-47.1,57.5-72.8
		c1.3-18.9-5.3-13.8-7-12c-10.5,11.1-62.6,62.6-67.7,67.5C39.8,119,30.2,166.8,44,196c11.8,24.9,43.8,41.3,86.5,32.5
		C161.4,222.2,192.6,194.9,192.9,153.9z"/>
</g>
<g>
	<path fill="#507E90" d="M153.8,45.3c-27.3,36.4-57.9,50.3-75.2,82.3c-15.3,28.3-15.2,51,1.2,64.8c20.7,17.4,65.8,4.5,79.6-21.5
		c0.5-0.9-4.6,2.7-5.6,3.3c-12,8-40.7,14.5-58.3,6c-6.5-3.2-24.5-19.4-10.8-50.5C99.8,96,140.6,74,154.5,45.3
		C154.8,44.8,154.6,44.2,153.8,45.3z"/>
</g>
<g>
	<path fill="#EDBB26" d="M160.1,40.7c-11,28.7-27,34.5-49.3,59.3c-22.3,24.8-30.7,48-21.7,67c10.1,21.2,48.6,10.8,50,9.7
		c2.3-1.9-31.7,3.9-36.7-20c-4.8-23.2,8.2-37.8,16.3-48.2c5.6-7.2,13.1-14.7,21.5-24.7c19.2-23.1,21.1-29.9,21.8-43.3
		C162.6,30.2,160.8,39,160.1,40.7z"/>
</g>
<path fill="#0A9667" d="M12,279.2c-2.8-2.8-4.2-6.3-4.2-10.5c0-4.1,1.4-7.6,4.2-10.4c2.8-2.8,6.3-4.2,10.4-4.2
	c4.2,0,7.8,1.3,10.8,3.9l-3.9,4.3c-2-1.6-4.3-2.3-6.9-2.3c-2.6,0-4.7,0.8-6.4,2.5c-1.6,1.6-2.4,3.7-2.4,6.2c0,2.7,0.8,4.9,2.4,6.5
	s3.7,2.4,6.4,2.4c2.1,0,3.7-0.4,4.9-1.2v-5l-3.9,0v-5.5h9.8v13.7c-3,2.6-6.6,3.9-10.8,3.9C18.3,283.4,14.9,282,12,279.2z"/>
<path fill="#0A9667" d="M43.7,266c1.4-1.4,3.1-2.1,5.1-2.1c0.6,0,1.2,0.1,1.8,0.2l-0.9,5.4c-0.6-0.6-1.5-0.9-2.7-0.9
	c-1.3,0.1-2.4,1.1-3.3,2.9v12h-5.5v-19l5.5-0.6V266z"/>
<path fill="#0A9667" d="M53.2,273.6c0-2.9,0.9-5.2,2.7-7c1.8-1.8,4.2-2.7,7-2.7c2.9,0,5.1,0.9,6.8,2.7c1.7,1.8,2.5,4.2,2.5,7v2H58.9
	c0.1,1,0.6,1.9,1.4,2.4s1.7,0.9,2.7,0.9c1.8,0,3.5-0.5,4.9-1.6l3.1,3.1c-1.4,2-4.1,2.9-8,2.9c-2.9,0-5.2-0.9-7-2.7
	C54.1,278.8,53.2,276.5,53.2,273.6z M65.7,269.2c-0.8-0.6-1.7-0.9-2.7-0.9s-2,0.3-2.7,0.9s-1.2,1.4-1.2,2.4h7.8
	C66.9,270.6,66.5,269.8,65.7,269.2z"/>
<path fill="#0A9667" d="M75.6,273.6c0-2.9,0.9-5.2,2.7-7c1.8-1.8,4.2-2.7,7-2.7s5.1,0.9,6.8,2.7c1.7,1.8,2.5,4.2,2.5,7v2H81.3
	c0.1,1,0.6,1.9,1.4,2.4s1.7,0.9,2.7,0.9c1.8,0,3.5-0.5,4.9-1.6l3.1,3.1c-1.4,2-4.1,2.9-8,2.9c-2.9,0-5.2-0.9-7-2.7
	C76.5,278.8,75.6,276.5,75.6,273.6z M88.1,269.2c-0.8-0.6-1.7-0.9-2.7-0.9s-2,0.3-2.7,0.9s-1.2,1.4-1.2,2.4h7.8
	C89.3,270.6,88.9,269.8,88.1,269.2z"/>
<path fill="#0A9667" d="M104.5,271v12.4H99v-19l5.5-0.6v1.8c1.3-1.2,2.9-1.8,4.7-1.8c2.5,0,4.4,0.7,5.7,2.2c1.3,1.5,2,3.2,2,5.2
	v12.1h-5.5v-10.7c0-1.3-0.3-2.3-1-3c-0.7-0.7-1.6-1.1-2.9-1.1C106.3,268.6,105.3,269.4,104.5,271z"/>
<path fill="#0A9667" d="M135.5,283.4v-29.3h5.9v11.7H155v-11.7h5.9v29.3l-5.9,0v-12.1h-13.7v12.1H135.5z"/>
<path fill="#0A9667" d="M165.7,273.6c0-2.9,0.9-5.2,2.7-7c1.8-1.8,4.2-2.7,7-2.7s5.1,0.9,6.8,2.7c1.7,1.8,2.5,4.2,2.5,7v2h-13.5
	c0.1,1,0.6,1.9,1.4,2.4s1.7,0.9,2.7,0.9c1.8,0,3.5-0.5,4.9-1.6l3.1,3.1c-1.4,2-4.1,2.9-8,2.9c-2.9,0-5.2-0.9-7-2.7
	C166.6,278.8,165.7,276.5,165.7,273.6z M178.2,269.2c-0.8-0.6-1.7-0.9-2.7-0.9s-2,0.3-2.7,0.9s-1.2,1.4-1.2,2.4h7.8
	C179.4,270.6,179,269.8,178.2,269.2z"/>
<path fill="#0A9667" d="M189.5,266.2c2.5-1.6,5.3-2.3,8.6-2.3c2.3,0,4.2,0.7,5.6,2c1.4,1.3,2.1,3.3,2.1,5.9v11.7h-5.5v-1.6
	c-1.6,1-3,1.6-4.3,1.6c-2.6,0-4.6-0.6-5.9-1.7c-1.3-1.1-2-2.6-2-4.6c0-1.8,0.6-3.5,1.8-4.9c1.2-1.4,3.2-2.1,6-2.1
	c1.3,0,2.7,0.4,4.3,1.2v-0.6c0-1.4-1.1-2.2-3.1-2.3c-2.3,0-4.2,0.4-5.5,1.2L189.5,266.2z M200.3,277.5v-2.2c-0.5-1-1.8-1.5-3.7-1.5
	c-2.3,0.3-3.6,1.2-3.7,2.7c0.1,1.5,1.4,2.4,3.7,2.5C198.5,279.1,199.8,278.6,200.3,277.5z"/>
<path fill="#0A9667" d="M219.5,283.4c-2.2,0-4-0.6-5.3-1.9c-1.3-1.2-2-2.8-2-4.8v-8.5h-2.9v-4.4h2.9v-5.3l5.5-0.6v5.9h2.9v4.4h-2.9
	v7.7c0,1,0.2,1.8,0.7,2.2c0.4,0.4,1,0.6,1.7,0.6c0.2,0,0.7-0.1,1.5-0.3l1.2,3.9C221.7,283.1,220.7,283.4,219.5,283.4z"/>
</svg>
