<?xml version="1.0" encoding="utf-8"?>
<!-- Generator: Adobe Illustrator 19.1.0, SVG Export Plug-In . SVG Version: 6.00 Build 0)  -->
<svg version="1.1" id="Layer_1" xmlns="http://www.w3.org/2000/svg" xmlns:xlink="http://www.w3.org/1999/xlink" x="0px" y="0px"
	 viewBox="-169.6 545.9 99.2 99.2" style="enable-background:new -169.6 545.9 99.2 99.2;" xml:space="preserve">
<path id="Layer_1_1_" d="M-121.6,628.5c0,0-0.1,0-0.1,0c-0.2,0-0.5,0-0.7,0c-3.7-0.3-7.1-2.6-8.6-6.1c-1.2-2.6-0.4-5.3,0.1-7.4
	c1.7-6.2,19.5-38.7,20.3-40.2c0.7-1.3,0.8-2.8,0.4-4.2c-1-3-3.6-5.2-6.8-5.4l-0.5,0c-2.3,0-4.4,1-5.7,3c-1.4,2-1.6,4.6-0.6,6.9
	c2,4.7,3.5,11.4,1,15.4c-0.9,1.3-2.6,2.9-6.1,2.9c0,0,0,0-0.1,0l-5.5-0.3h0l-32.1-2.6c-0.7,0-1.2-0.7-1.2-1.4c0-0.7,0.7-1.2,1.4-1.2
	l32.1,2.6l5.5,0.3c1.8,0,3.1-0.6,3.9-1.8c1.3-2,1.5-6.9-1.2-12.9c-1.3-3.1-1-6.6,0.8-9.4c1.8-2.7,4.8-4.2,8-4.2h0l0.5,0h0
	c4.2,0.3,7.8,3.2,9.1,7.3c0.6,2,0.4,4.2-0.6,6.2c0,0,0,0,0,0c-0.2,0.3-18.5,33.7-20.1,39.7c-0.6,2.2-1,4-0.3,5.6
	c1.2,2.6,3.7,4.3,6.4,4.5c0.2,0,0.4,0,0.5,0c0,0,0.1,0,0.1,0c2.3,0,4.3-1.1,5.6-3c1.4-2.1,1.6-4.6,0.6-6.9c-4-9.2-3.3-13.6-1.9-15.7
	c1.1-1.7,3-2.6,5.6-2.6c0,0,0.1,0,0.1,0l6.4,0.6l31.8,2.6c0.7,0,1.2,0.7,1.2,1.4s-0.7,1.2-1.4,1.2l-31.8-2.6l-6.3-0.6
	c-1.6,0-2.7,0.5-3.3,1.4c-1.4,2.1-0.6,6.9,2.1,13.2c1.3,3.1,1,6.6-0.8,9.4C-115.5,626.9-118.4,628.5-121.6,628.5z"/>
</svg>
