<?xml version="1.0" encoding="utf-8"?>
<!-- Generator: Adobe Illustrator 19.1.0, SVG Export Plug-In . SVG Version: 6.00 Build 0)  -->
<svg version="1.1" id="Layer_1" xmlns="http://www.w3.org/2000/svg" xmlns:xlink="http://www.w3.org/1999/xlink" x="0px" y="0px"
	 viewBox="-305 450 1085.3 258.2" style="enable-background:new -305 450 1085.3 258.2;" xml:space="preserve">
<style type="text/css">
	.st0{fill:#0A9667;}
	.st1{fill:#507E90;}
	.st2{fill:#EDBB26;}
</style>
<g>
	<g>
		<path class="st0" d="M-112.1,613.1c0.2-29.3-16-64.3-50.5-56.8c-24.7,5.4-39.4,39.9-35.7,56.3c1.5,6.8,4,6.9,13.7-0.7
			c1.4-1.1,12-9.2,10.1-10.3c-1.6-0.9-5.6-1.6-6.4-3.3c-2.8-5.5,6.8-16.2,15.5-18c16.2-3.3,33.2,9.9,26.2,39.4
			c-4.7,19.8-20.6,34-42,40.1c-22.2,6.3-45,2.6-54.7-13c-13.7-22.1-2.3-60.6,30.2-91.8c22.5-21.5,55.7-47.1,57.5-72.8
			c1.3-18.9-5.3-13.8-7-12c-10.5,11.1-62.6,62.6-67.7,67.5c-42.3,40.5-51.9,88.3-38.1,117.5c11.8,24.9,43.8,41.3,86.5,32.5
			C-143.6,681.4-112.4,654.1-112.1,613.1z"/>
	</g>
	<g>
		<path class="st1" d="M-151.2,504.5c-27.3,36.4-57.9,50.3-75.2,82.3c-15.3,28.3-15.2,51,1.2,64.8c20.7,17.4,65.8,4.5,79.6-21.5
			c0.5-0.9-4.6,2.7-5.6,3.3c-12,8-40.7,14.5-58.3,6c-6.5-3.2-24.5-19.4-10.8-50.5c15.1-33.7,55.9-55.7,69.8-84.4
			C-150.2,504-150.4,503.4-151.2,504.5z"/>
	</g>
	<g>
		<path class="st2" d="M-144.9,499.9c-11,28.7-27,34.5-49.3,59.3c-22.3,24.8-30.7,48-21.7,67c10.1,21.2,48.6,10.8,50,9.7
			c2.3-1.9-31.7,3.9-36.7-20c-4.8-23.2,8.2-37.8,16.3-48.2c5.6-7.2,13.1-14.7,21.5-24.7c19.2-23.1,21.1-29.9,21.8-43.3
			C-142.4,489.4-144.2,498.2-144.9,499.9z"/>
	</g>
</g>
<g>
	<path class="st0" d="M-29.2,643.5c-10.1-10.1-15.1-22.6-15.1-37.7c0-14.7,5-27.3,15.1-37.3c10.1-10.1,22.6-15.1,37.3-15.1
		c15.1,0,28,4.7,38.8,14l-14,15.4c-7.2-5.7-15.4-8.3-24.8-8.3s-16.9,2.9-23,9c-5.7,5.7-8.6,13.3-8.6,22.3c0,9.7,2.9,17.6,8.6,23.3
		c5.7,5.7,13.3,8.6,23,8.6c7.5,0,13.3-1.4,17.6-4.3v-18h-14v-19.7h35.2v49.2c-10.8,9.3-23.7,14-38.8,14
		C-6.6,658.5-18.8,653.5-29.2,643.5z"/>
	<path class="st0" d="M84.6,594c5-5,11.1-7.5,18.3-7.5c2.2,0,4.3,0.4,6.5,0.7l-3.2,19.4c-2.2-2.2-5.4-3.2-9.7-3.2
		c-4.7,0.4-8.6,3.9-11.8,10.4v43.1H64.8v-68.2l19.7-2.2C84.6,586.5,84.6,594,84.6,594z"/>
	<path class="st0" d="M118.7,621.3c0-10.4,3.2-18.7,9.7-25.1c6.5-6.5,15.1-9.7,25.1-9.7c10.4,0,18.3,3.2,24.4,9.7
		c6.1,6.5,9,15.1,9,25.1v7.2h-47.7c0.4,3.6,2.2,6.8,5,8.6c2.9,1.8,6.1,3.2,9.7,3.2c6.5,0,12.6-1.8,17.6-5.7l11.1,11.1
		c-5,7.2-14.7,10.4-28.7,10.4c-10.4,0-18.7-3.2-25.1-9.7C121.9,640,118.7,631.7,118.7,621.3z M163.6,605.5c-2.9-2.2-6.1-3.2-9.7-3.2
		c-3.6,0-7.2,1.1-9.7,3.2c-2.5,2.2-4.3,5-4.3,8.6h28C167.9,610.6,166.4,607.7,163.6,605.5z"/>
	<path class="st0" d="M199.1,621.3c0-10.4,3.2-18.7,9.7-25.1c6.5-6.5,15.1-9.7,25.1-9.7c10.1,0,18.3,3.2,24.4,9.7
		c6.1,6.5,9,15.1,9,25.1v7.2h-47.7c0.4,3.6,2.2,6.8,5,8.6c2.9,1.8,6.1,3.2,9.7,3.2c6.5,0,12.6-1.8,17.6-5.7l11.1,11.1
		c-5,7.2-14.7,10.4-28.7,10.4c-10.4,0-18.7-3.2-25.1-9.7C202.3,640,199.1,631.7,199.1,621.3z M244,605.5c-2.9-2.2-6.1-3.2-9.7-3.2
		c-3.6,0-7.2,1.1-9.7,3.2c-2.5,2.2-4.3,5-4.3,8.6h28C248.3,610.6,246.9,607.7,244,605.5z"/>
	<path class="st0" d="M302.9,612v44.5h-19.7v-68.2l19.7-2.2v6.5c4.7-4.3,10.4-6.5,16.9-6.5c9,0,15.8,2.5,20.5,7.9
		c4.7,5.4,7.2,11.5,7.2,18.7v43.4h-19.7v-38.4c0-4.7-1.1-8.3-3.6-10.8c-2.5-2.5-5.7-3.9-10.4-3.9C309.3,603.4,305.7,606.3,302.9,612
		z"/>
	<path class="st0" d="M414.2,656.5V551.3h21.2v42h48.8v-42h21.2v105.2h-21.2v-43.4H435v43.4H414.2z"/>
	<path class="st0" d="M522.6,621.3c0-10.4,3.2-18.7,9.7-25.1s15.1-9.7,25.1-9.7s18.3,3.2,24.4,9.7c6.1,6.5,9,15.1,9,25.1v7.2h-48.5
		c0.4,3.6,2.2,6.8,5,8.6c2.9,1.8,6.1,3.2,9.7,3.2c6.5,0,12.6-1.8,17.6-5.7l11.1,11.1c-5,7.2-14.7,10.4-28.7,10.4
		c-10.4,0-18.7-3.2-25.1-9.7C525.8,640,522.6,631.7,522.6,621.3z M567.4,605.5c-2.9-2.2-6.1-3.2-9.7-3.2s-7.2,1.1-9.7,3.2
		c-2.5,2.2-4.3,5-4.3,8.6h28C571.8,610.6,570.3,607.7,567.4,605.5z"/>
	<path class="st0" d="M608,594.8c9-5.7,19-8.3,30.9-8.3c8.3,0,15.1,2.5,20.1,7.2c5,4.7,7.5,11.8,7.5,21.2v42h-19.7v-5.7
		c-5.7,3.6-10.8,5.7-15.4,5.7c-9.3,0-16.5-2.2-21.2-6.1c-4.7-3.9-7.2-9.3-7.2-16.5c0-6.5,2.2-12.6,6.5-17.6c4.3-5,11.5-7.5,21.5-7.5
		c4.7,0,9.7,1.4,15.4,4.3v-2.2c0-5-3.9-7.9-11.1-8.3c-8.3,0-15.1,1.4-19.7,4.3L608,594.8z M646.8,635.3v-7.9
		c-1.8-3.6-6.5-5.4-13.3-5.4c-8.3,1.1-12.9,4.3-13.3,9.7c0.4,5.4,5,8.6,13.3,9C640.3,641.1,645,639.3,646.8,635.3z"/>
	<path class="st0" d="M715.7,656.5c-7.9,0-14.4-2.2-19-6.8c-4.7-4.3-7.2-10.1-7.2-17.2v-30.5h-10.4v-15.8h10.4v-19l19.7-2.2v21.2
		h10.4v15.8h-10.4v27.6c0,3.6,0.7,6.5,2.5,7.9c1.4,1.4,3.6,2.2,6.1,2.2c0.7,0,2.5-0.4,5.4-1.1l4.3,14
		C723.6,655.4,720,656.5,715.7,656.5z"/>
</g>
</svg>
