<?xml version="1.0" encoding="utf-8"?>
<!-- Generator: Adobe Illustrator 19.1.0, SVG Export Plug-In . SVG Version: 6.00 Build 0)  -->
<svg version="1.1" id="Layer_1" xmlns="http://www.w3.org/2000/svg" xmlns:xlink="http://www.w3.org/1999/xlink" x="0px" y="0px"
	 viewBox="0 0 99.2 99.2" style="enable-background:new 0 0 99.2 99.2;" xml:space="preserve">
<style type="text/css">
	.st0{fill:#4C4C4C;}
</style>
<path class="st0" d="M89.2,22.3c0,0,0.5,0.1,0.8,0c1.5-0.4,2.9-0.9,4.4-1.3c0.5-0.1,1,0,1.5,0c-0.1,0.5-0.1,1.2-0.4,1.5
	c-2,2.3-3.9,4.8-6.2,6.7c-1.7,1.4-1.6,3-1.7,4.8c-0.5,4.2-0.7,8.5-1.7,12.5c-1.1,4.1-2.8,8-4.7,11.8c-1.9,3.8-4.1,7.6-6.9,10.8
	c-3.1,3.6-7,6.6-10.8,9.6c-2.3,1.8-4.9,3.2-7.5,4.5c-1.8,0.9-3.9,1.5-5.9,2.1c-2.5,0.8-5.1,1.5-7.6,2.2c-0.3,0.1-0.6,0.2-1,0.2
	c-6.3,0-12.5,0.2-18.8-0.1c-2.5-0.1-5.1-1.3-7.5-2.1c-2.4-0.8-4.8-1.7-7.2-2.7C6.7,82.4,5.3,81.8,4,81c-0.4-0.2-0.8-0.9-0.7-1.3
	c0-0.3,0.7-0.8,1.2-0.8c2-0.1,4-0.1,6.1-0.2c4.9-0.2,9.6-1.3,13.9-3.9c1.2-0.7,2.5-1.3,3.8-2c0.3-0.2,0.5-0.6,0.7-1
	c-0.3-0.2-0.6-0.5-0.9-0.5c-5.8-0.8-10.1-3.9-13.2-8.7c-0.7-1.1-1.3-2.3-1.6-3.5c-0.3-1.3,0.2-2.1,1.8-1.9c0.6,0.1,1.2,0,1.8,0
	c0.2,0,0.4-0.3,0.6-0.4c-0.2-0.1-0.3-0.3-0.5-0.4c-3.2-1.8-6-3.9-7.9-7.1c-1.7-3-3.2-5.9-3.2-9.4c0-1.4,0.4-2,1.9-1.2
	c1.4,0.6,3,0.8,4.2,1.1c-1.8-3-4-5.6-5-8.6C5.8,28,4.8,24.5,6.4,21c0.5-1.1,0.6-2.4,1-3.5c0.3-0.8,0.8-1.6,1.2-2.4
	c0.7,0.5,1.4,1,2.1,1.5c4,3.3,7.8,6.9,12.1,9.8c3.6,2.4,7.7,4.1,11.7,5.7c2.8,1.1,5.8,1.3,8.8,1.9c1.2,0.2,2.3,0.6,3.5,0.6
	c0.4,0,1.1-0.6,1.1-1c0.4-2.9,0.4-6,1-8.9c0.8-3.7,3.2-6.5,6-9c5.2-4.7,11.5-5.1,17.9-4c2.9,0.5,5.4,2.9,8.2,4.1
	c1.4,0.6,3.3,0.6,4.8,0.2c2.4-0.6,4.7-1.9,7.1-2.8c0.4-0.1,0.9,0.1,1.3,0.2c-0.1,0.4-0.2,0.8-0.4,1.1C92.3,17.2,90.8,19.7,89.2,22.3
	z"/>
</svg>
