<?xml version="1.0" encoding="utf-8"?>
<!-- Generator: Adobe Illustrator 19.1.0, SVG Export Plug-In . SVG Version: 6.00 Build 0)  -->
<svg version="1.1" id="Layer_1" xmlns="http://www.w3.org/2000/svg" xmlns:xlink="http://www.w3.org/1999/xlink" x="0px" y="0px"
	 viewBox="0 0 99.2 99.2" style="enable-background:new 0 0 99.2 99.2;" xml:space="preserve">
<style type="text/css">
	.st0{fill:#4C4C4C;}
</style>
<g>
	<path class="st0" d="M36,64.9c0-9.6,0-19.3,0.1-28.9c0-0.7,1.2-1.9,1.9-1.9c4.7-0.2,9.4-0.3,14.1,0c1.1,0.1,2.3,1.7,3.1,2.9
		c0.5,0.6,0.2,1.7,0.3,2.6c0.8-0.7,1.6-1.3,2.4-2.1c5.8-6,18.3-7.5,25.8-3.9c9.4,4.5,12.3,12.2,12.5,21.6c0.2,12.7,0.1,25.4-0.1,38
		c0,1-1.7,2.7-2.7,2.7c-5,0.3-10.1,0.2-15.1,0c-0.8,0-2.1-1.4-2.1-2.2c-0.2-11.2,0.4-22.4-0.5-33.6c-0.3-3.5-3.8-8.6-6.9-9.7
		c-5.8-2-11.9,0.4-12.5,7.6c-0.9,11.7-0.7,23.5-1.2,35.3c0,0.9-1.6,2.5-2.6,2.5c-4.9,0.3-9.8,0.2-14.6,0c-0.7,0-1.9-1.3-1.9-2
		C35.9,84.4,36,74.7,36,64.9z"/>
	<path class="st0" d="M5,64.9c0-9.7,0-19.4,0.1-29.1c0-0.6,1.1-1.7,1.7-1.7c5.3-0.1,10.6-0.1,15.8,0c0.6,0,1.7,1.1,1.7,1.7
		c0.1,19.5,0.1,38.9,0,58.4c0,0.7-1.2,1.9-1.9,2c-5.1,0.2-10.2,0.2-15.2,0c-0.7,0-2-1.3-2-2C4.9,84.4,5,74.7,5,64.9z"/>
	<path class="st0" d="M14.5,26.3c-7,0-11.6-4.7-11.6-11.8c0-6.9,4.7-11.6,11.7-11.6c7,0,11.6,4.7,11.6,11.7
		C26.3,21.5,21.4,26.3,14.5,26.3z"/>
</g>
</svg>
