<?xml version="1.0" encoding="utf-8"?>
<!-- Generator: Adobe Illustrator 19.1.0, SVG Export Plug-In . SVG Version: 6.00 Build 0)  -->
<svg version="1.1" id="Layer_1" xmlns="http://www.w3.org/2000/svg" xmlns:xlink="http://www.w3.org/1999/xlink" x="0px" y="0px"
	 viewBox="-134 204.5 230.5 292.5" style="enable-background:new -134 204.5 230.5 292.5;" xml:space="preserve">
<style type="text/css">
	.st0{fill:#FFFFFF;}
</style>
<g>
	<path class="st0" d="M58.8,358.9c0.2-29.3-16-64.3-50.5-56.8c-24.7,5.4-39.4,39.9-35.7,56.3c1.5,6.8,4,6.9,13.7-0.7
		c1.4-1.1,12-9.2,10.1-10.3c-1.6-0.9-5.6-1.6-6.4-3.3c-2.8-5.5,6.8-16.2,15.5-18c16.2-3.3,33.2,9.9,26.2,39.4
		c-4.7,19.8-20.6,34-42,40.1c-22.2,6.3-45,2.6-54.7-13c-13.7-22.1-2.3-60.6,30.2-91.8c22.5-21.5,55.7-47.1,57.5-72.8
		c1.3-18.9-5.3-13.8-7-12c-10.5,11.1-62.6,62.6-67.7,67.5C-94.2,324-103.9,371.8-90,401c11.8,24.9,43.8,41.3,86.5,32.5
		C27.4,427.2,58.5,399.9,58.8,358.9z"/>
</g>
<g>
	<path class="st0" d="M19.8,250.3c-27.3,36.4-57.9,50.3-75.2,82.3c-15.3,28.3-15.2,51,1.2,64.8c20.7,17.4,65.8,4.5,79.6-21.5
		c0.5-0.9-4.6,2.7-5.6,3.3c-12,8-40.7,14.5-58.3,6c-6.5-3.2-24.5-19.4-10.8-50.5C-34.3,301,6.5,279,20.4,250.3
		C20.8,249.8,20.5,249.2,19.8,250.3z"/>
</g>
<g>
	<path class="st0" d="M26,245.7C15,274.4-1,280.2-23.2,305s-30.7,48-21.7,67c10.1,21.2,48.6,10.8,50,9.7c2.3-1.9-31.7,3.9-36.7-20
		c-4.8-23.2,8.2-37.8,16.3-48.2c5.6-7.2,13.1-14.7,21.5-24.7c19.2-23.1,21.1-29.9,21.8-43.3C28.5,235.2,26.8,244,26,245.7z"/>
</g>
<path class="st0" d="M-122.1,484.2c-2.8-2.8-4.2-6.3-4.2-10.5c0-4.1,1.4-7.6,4.2-10.4s6.3-4.2,10.4-4.2c4.2,0,7.8,1.3,10.8,3.9
	l-3.9,4.3c-2-1.6-4.3-2.3-6.9-2.3c-2.6,0-4.7,0.8-6.4,2.5c-1.6,1.6-2.4,3.7-2.4,6.2c0,2.7,0.8,4.9,2.4,6.5c1.6,1.6,3.7,2.4,6.4,2.4
	c2.1,0,3.7-0.4,4.9-1.2v-5h-3.9v-5.5h9.8v13.7c-3,2.6-6.6,3.9-10.8,3.9C-115.8,488.4-119.1,487-122.1,484.2z"/>
<path class="st0" d="M-90.3,471c1.4-1.4,3.1-2.1,5.1-2.1c0.6,0,1.2,0.1,1.8,0.2l-0.9,5.4c-0.6-0.6-1.5-0.9-2.7-0.9
	c-1.3,0.1-2.4,1.1-3.3,2.9v12h-5.5v-19l5.5-0.6C-90.3,468.9-90.3,471-90.3,471z"/>
<path class="st0" d="M-80.8,478.6c0-2.9,0.9-5.2,2.7-7c1.8-1.8,4.2-2.7,7-2.7c2.9,0,5.1,0.9,6.8,2.7c1.7,1.8,2.5,4.2,2.5,7v2h-13.3
	c0.1,1,0.6,1.9,1.4,2.4s1.7,0.9,2.7,0.9c1.8,0,3.5-0.5,4.9-1.6l3.1,3.1c-1.4,2-4.1,2.9-8,2.9c-2.9,0-5.2-0.9-7-2.7
	C-79.9,483.8-80.8,481.5-80.8,478.6z M-68.3,474.2c-0.8-0.6-1.7-0.9-2.7-0.9s-2,0.3-2.7,0.9s-1.2,1.4-1.2,2.4h7.8
	C-67.2,475.6-67.6,474.8-68.3,474.2z"/>
<path class="st0" d="M-58.4,478.6c0-2.9,0.9-5.2,2.7-7c1.8-1.8,4.2-2.7,7-2.7s5.1,0.9,6.8,2.7c1.7,1.8,2.5,4.2,2.5,7v2h-13.3
	c0.1,1,0.6,1.9,1.4,2.4s1.7,0.9,2.7,0.9c1.8,0,3.5-0.5,4.9-1.6l3.1,3.1c-1.4,2-4.1,2.9-8,2.9c-2.9,0-5.2-0.9-7-2.7
	C-57.6,483.8-58.4,481.5-58.4,478.6z M-45.9,474.2c-0.8-0.6-1.7-0.9-2.7-0.9s-2,0.3-2.7,0.9s-1.2,1.4-1.2,2.4h7.8
	C-44.8,475.6-45.2,474.8-45.9,474.2z"/>
<path class="st0" d="M-29.6,476v12.4h-5.5v-19l5.5-0.6v1.8c1.3-1.2,2.9-1.8,4.7-1.8c2.5,0,4.4,0.7,5.7,2.2s2,3.2,2,5.2v12.1h-5.5
	v-10.7c0-1.3-0.3-2.3-1-3s-1.6-1.1-2.9-1.1C-27.8,473.6-28.8,474.4-29.6,476z"/>
<path class="st0" d="M1.5,488.4v-29.3h5.9v11.7H21v-11.7h5.9v29.3H21v-12.1H7.2v12.1H1.5z"/>
<path class="st0" d="M31.6,478.6c0-2.9,0.9-5.2,2.7-7c1.8-1.8,4.2-2.7,7-2.7c2.8,0,5.1,0.9,6.8,2.7c1.7,1.8,2.5,4.2,2.5,7v2H37.2
	c0.1,1,0.6,1.9,1.4,2.4s1.7,0.9,2.7,0.9c1.8,0,3.5-0.5,4.9-1.6l3.1,3.1c-1.4,2-4.1,2.9-8,2.9c-2.9,0-5.2-0.9-7-2.7
	C32.5,483.8,31.6,481.5,31.6,478.6z M44.2,474.2c-0.8-0.6-1.7-0.9-2.7-0.9s-2,0.3-2.7,0.9s-1.2,1.4-1.2,2.4h7.8
	C45.3,475.6,45,474.8,44.2,474.2z"/>
<path class="st0" d="M55.5,471.2c2.5-1.6,5.3-2.3,8.6-2.3c2.3,0,4.2,0.7,5.6,2s2.1,3.3,2.1,5.9v11.7h-5.5v-1.6c-1.6,1-3,1.6-4.3,1.6
	c-2.6,0-4.6-0.6-5.9-1.7c-1.3-1.1-2-2.6-2-4.6c0-1.8,0.6-3.5,1.8-4.9c1.2-1.4,3.2-2.1,6-2.1c1.3,0,2.7,0.4,4.3,1.2v-0.6
	c0-1.4-1.1-2.2-3.1-2.3c-2.3,0-4.2,0.4-5.5,1.2L55.5,471.2z M66.2,482.5v-2.2c-0.5-1-1.8-1.5-3.7-1.5c-2.3,0.3-3.6,1.2-3.7,2.7
	c0.1,1.5,1.4,2.4,3.7,2.5C64.4,484.1,65.8,483.6,66.2,482.5z"/>
<path class="st0" d="M85.4,488.4c-2.2,0-4-0.6-5.3-1.9c-1.3-1.2-2-2.8-2-4.8v-8.5h-2.9v-4.4h2.9v-5.3l5.5-0.6v5.9h2.9v4.4h-2.9v7.7
	c0,1,0.2,1.8,0.7,2.2c0.4,0.4,1,0.6,1.7,0.6c0.2,0,0.7-0.1,1.5-0.3l1.2,3.9C87.7,488.1,86.7,488.4,85.4,488.4z"/>
</svg>
